<?xml version="1.0" encoding="UTF-8"?> <svg xmlns="http://www.w3.org/2000/svg" xmlns:xlink="http://www.w3.org/1999/xlink" width="86px" height="174px" viewBox="0 0 86 174"><!-- Generator: Sketch 53.2 (72643) - https://sketchapp.com --><title>lady</title><desc>Created with Sketch.</desc><defs><polygon id="path-1" points="0 0.79960231 15.2531263 0.79960231 15.2531263 8.11398964 0 8.11398964"></polygon></defs><g id="Goodbudget-v1" stroke="none" stroke-width="1" fill="none" fill-rule="evenodd"><g id="Home-desktop-v1a" transform="translate(-227.000000, -327.000000)"><g id="lady" transform="translate(227.000000, 327.000000)"><path d="M6.03919158,28.6689793 L0.967907368,26.154544 C0.915402105,28.299342 0.829402105,30.9976943 0.869233684,34.1432176 L6.75072842,33.1578187 C6.51626526,31.631487 6.28270737,30.1240881 6.03919158,28.6689793" id="Fill-1" fill="#FFB288"></path><path d="M19.9376968,36.1631503 C20.9787495,34.8027047 22.2959074,33.6586321 23.8592968,32.9491088 C26.8213179,31.6030881 28.8472968,32.3585907 29.09896,35.8250674 C29.2845389,38.379171 28.25616,40.8746736 26.4755074,42.721057 L19.5457179,49.9091503 L15.1235074,42.5948394 C16.86976,40.2724352 18.6513179,37.8445492 19.9376968,36.1631503" id="Fill-3" fill="#B0EFFF"></path><path d="M6.75036632,33.1573679 C7.58320842,38.5856269 8.41695579,44.303285 9.68794526,49.2149534 C10.6837347,48.4017513 12.8744716,45.5861969 15.1240505,42.5948394 L19.5462611,49.9091503 L10.2555453,59.5449637 C8.53282947,60.9721244 4.52341895,60.3058756 4.17670316,58.1141969 C1.47539789,48.3377409 0.952155789,40.7475544 0.868871579,34.1427668 L6.75036632,33.1573679 Z" id="Fill-5" fill="#B0EFFF"></path><path d="M6.72166947,21.3754943 C5.16552211,20.5442611 3.99773263,15.5460435 3.13049053,17.078686 L0.577648421,25.7218881 C-0.289593684,27.2545306 0.274385263,29.1883648 1.83143789,30.0195979 C3.38758526,30.8508311 5.37011158,30.2765409 6.23735368,28.7438984 L7.97455368,25.6732041 C8.84179579,24.1405617 8.27781684,22.2067275 6.72166947,21.3754943" id="Fill-7" fill="#FFB288"></path><path d="M71.6265937,164.077763 L80.2157305,157.025804 C80.6393937,156.678706 81.3020463,156.631825 81.5328884,156.932944 L85.2073516,161.725607 C85.4218989,162.004188 85.1530358,162.442343 84.6460884,162.639783 L74.0870989,166.752675 C71.3124674,167.833638 69.4793095,165.840302 71.6265937,164.077763" id="Fill-9" fill="#161616"></path><path d="M54.9848695,133.865052 C55.2084695,134.031839 55.4248274,134.194119 55.6547642,134.365415 C64.4530168,140.901684 73.2856695,146.95472 81.1469747,154.526876 C86.1286379,159.32585 80.6291642,165.295943 75.2681958,160.884637 C64.0076274,151.621166 54.8345958,147.053891 48.3248484,142.842731 C51.5321958,140.868326 53.9899853,137.837301 54.9848695,133.865052" id="Fill-11" fill="#FFB288"></path><path d="M54.9844168,133.865052 C53.9904379,137.837301 51.5326484,140.868326 48.3243958,142.842731 C41.7494695,138.589197 37.3517011,135.385073 34.0999958,130.838534 C31.0492589,126.571477 28.5453011,121.851839 26.4595747,116.913124 C30.7975958,116.072876 35.0215537,114.600637 39.0201011,112.379207 C41.5602695,122.943622 44.4462484,126.001694 54.9844168,133.865052" id="Fill-13" fill="#FFB288"></path><g id="Group-17" transform="translate(0.000000, 165.016912)"><mask id="mask-2" fill="white"><use xlink:href="#path-1"></use></mask><g id="Clip-16"></g><path d="M1.81251789,2.86820518 L13.1400758,0.819873575 C13.6986232,0.718899482 14.3196337,1.00829845 14.3748547,1.39596684 L15.2493389,7.55809119 C15.3000337,7.91690984 14.8347284,8.17655751 14.2779916,8.10082694 L2.66980211,6.51228808 C-0.380934737,6.09576995 -1.01914526,3.38028808 1.81251789,2.86820518" id="Fill-15" fill="#161616" mask="url(#mask-2)"></path></g><path d="M21.5965916,119.355706 C20.71396,122.707685 20.2061074,126.69526 19.6982547,132.028856 C19.4864232,134.248483 19.2926968,136.457291 19.0980653,138.66069 C15.3376021,138.88698 11.4187179,138.412763 8.06200211,136.864794 C8.23852842,129.180846 8.31457053,123.505561 9.12206526,118.65069 C13.2772232,119.347592 17.4649705,119.609042 21.5965916,119.355706" id="Fill-18" fill="#FFB288"></path><path d="M19.0983368,138.66078 C18.3107579,147.596086 17.5150316,156.410583 15.5153053,165.20164 C13.9356211,172.147216 5.84890526,173.432832 6.70528421,163.476065 C7.65762105,152.386946 7.90294737,143.809558 8.06227368,136.863982 C11.4189895,138.412853 15.3378737,138.88707 19.0983368,138.66078" id="Fill-20" fill="#FFB288"></path><path d="M20.7443768,18.5497523 C20.9734084,17.4453482 21.51204,16.3562705 21.3246505,15.2446539 C20.5723768,10.7945813 20.3967558,5.04536891 24.8796189,2.09097513 C24.8959137,2.07925492 24.9149242,2.07023938 24.9312189,2.05942073 C26.4466295,0.778311917 28.4074295,0.000270466321 30.5538084,0.000270466321 C31.5695137,0.000270466321 32.5408611,0.182384456 33.4461242,0.500633161 C35.3154926,0.81978342 36.9875137,1.61224974 37.9995979,3.01867461 C39.2416189,4.7469544 39.6435558,7.38580415 41.6822084,8.02951399 C42.7214505,8.35767979 43.40764,8.59839482 44.2395768,9.29890259 C44.9248611,9.87589741 45.3747768,11.2336383 45.1692821,12.1018352 C44.9655979,12.9664259 43.8322084,15.1535969 44.6179768,16.9810477 C44.6578084,17.0396487 44.6940189,17.0991513 44.7374716,17.1559492 C44.8633032,17.3001979 45.04164,17.4913275 45.0787558,17.5544363 C45.2507558,17.7356487 45.4299979,17.9078456 45.6191979,18.0529959 C46.8268189,18.9815969 48.3639558,19.7181668 48.8727137,21.1480321 C49.5109242,22.9448301 48.1874295,24.8065399 46.8530716,26.1750995 C46.1189032,26.9297005 45.2887768,27.8537938 45.5096611,28.8797627 C45.60924,29.3440632 45.9152189,29.7344363 46.0980821,30.1734933 C46.8023768,31.8621047 45.3783979,33.872571 43.5923137,34.3134311 C41.8062295,34.7542912 39.9187558,33.9987886 38.43684,32.9142187 C36.9558295,31.8296487 35.7427768,30.4223223 34.3034084,29.281856 C33.9965242,29.0384363 33.6742505,28.8031306 33.4452189,28.4848819 C33.1473874,28.0701668 33.0577663,27.5670995 33.0758716,27.054115 C31.5876189,27.7672446 30.0332821,28.2982601 28.3983768,28.2658041 C25.8853663,28.2153171 23.2284189,26.2724674 23.3904611,23.7823741 C23.43844,23.0530166 23.6457453,22.1487575 23.0437453,21.7286332 C22.7106084,21.4960321 22.2625032,21.5366021 21.8741453,21.4157938 C20.7905453,21.0804155 20.51444,19.6541565 20.7443768,18.5497523" id="Fill-22" fill="#693523"></path><path d="M49.6969558,79.2330187 C49.8544716,77.2063244 49.7349768,75.1390601 49.2651453,73.0402415 C48.6269347,70.190428 47.6248084,67.5452674 46.7367453,64.8685523 C46.3538189,64.1770601 45.9899032,63.4756508 45.6784926,62.750801 C45.3969558,62.0917648 45.1661137,61.4128943 44.9624295,60.7268114 C44.6709347,59.3862 44.5034611,58.0158373 44.5432926,56.5958891 C44.5586821,56.0747907 44.5967032,55.5591016 44.6510189,55.0461171 C44.4111242,53.6883762 44.65464,52.2341689 45.3779453,51.0765731 C45.9401137,48.7496611 46.6579874,46.4497959 47.1450189,44.0931326 C47.1450189,44.0931326 52.0633137,31.5903762 42.6802611,29.1047907 C38.9297558,26.3027596 33.4139874,23.9767492 27.6221137,27.7398373 C27.6058189,27.7605731 27.5931453,27.7822104 27.57504,27.8029461 C25.2684295,30.5869461 23.2786611,32.3278477 21.9669347,35.8691534 C21.0969768,38.2149979 19.3896505,43.0184798 19.4168084,43.171744 C18.8157137,44.4609668 18.3341137,45.8502622 17.9919242,47.0980135 C17.0939032,50.3661482 17.7746611,54.538542 20.7366821,56.0847078 C21.9044716,58.6523347 22.1380295,59.9848321 22.0502189,61.2479098 C22.0303032,61.5436197 21.9904716,61.830314 21.9651242,62.1242207 C21.96784,65.1768839 21.4056716,68.1006249 20.7240084,71.0550187 C20.5429558,72.1215575 20.3628084,73.1844902 20.19624,74.2483244 C20.0839874,75.3626456 19.9590611,76.4751637 19.8395663,77.5885834 C19.8250821,77.6255472 19.8096926,77.6525938 19.7961137,77.6931637 C19.5353979,78.4252259 19.4331032,79.2853088 19.4032295,80.1841585 L49.6888084,79.7225627 C49.6869979,79.5602829 49.7023874,79.3952984 49.6969558,79.2330187" id="Fill-24" fill="#B0EFFF"></path><path d="M19.4028674,80.1838881 L49.6884463,79.7231938 C49.6993095,80.9231627 49.6033516,82.1339503 49.4467411,83.3384269 L19.4825305,83.3384269 C19.4336463,82.3178674 19.3684674,81.2278881 19.4028674,80.1838881" id="Fill-26" fill="#B0EFFF"></path><path d="M10.4059095,113.431772 C10.6521411,112.69971 10.9182884,111.973057 11.2269832,111.257223 C11.3582463,110.953399 11.5058042,110.655886 11.6415937,110.354767 C13.4421621,104.25485 17.6235726,98.6670155 18.9362042,92.3363005 C19.4395305,89.9111192 19.5038042,87.4282383 19.5282463,84.9606839 C19.5327726,84.4621244 19.5092358,83.9076684 19.4820779,83.3387876 L49.4462884,83.3387876 C49.2389832,84.9273264 48.9148989,86.5068497 48.4767516,88.0376891 C48.5636568,88.1539896 48.6532779,88.2648808 48.7401832,88.3829845 C48.5718042,88.5344456 48.4224358,88.6678756 48.2558674,88.8166321 C46.5738884,94.3052953 44.1287726,99.5451295 42.6432358,105.090591 C40.2415726,114.052041 42.2422042,119.198114 45.5092989,126.166228 C34.4279726,129.840062 21.3442042,130.063648 11.1790042,124.34599 C10.4384989,123.929472 9.67083579,123.44714 9.31054105,122.682622 C9.02266737,122.071368 8.78729895,121.346518 8.83165684,120.67486 C8.99460421,118.205503 9.55586737,115.771306 10.4059095,113.431772" id="Fill-28" fill="#007FEC"></path><path d="M72.1198716,86.7241244 C72.2185453,87.1866218 72.2583768,87.6572332 72.1904821,88.1278446 C72.0492611,89.096114 71.3531137,90.049057 70.3917242,90.2032228 C70.3011979,90.2176477 70.2124821,90.2005181 70.1219558,90.2014197 C70.1427768,90.2365803 70.1645032,90.2726425 70.1844189,90.3069016 C69.9870716,90.3348497 69.7888189,90.3618964 69.5878505,90.4123834 C70.3636611,90.2167461 69.8576189,90.2933782 69.4466295,90.3438653 C69.3135558,90.3114093 68.7006926,90.2582176 68.5612821,90.2293679 C68.4445032,90.2041244 68.3295347,90.1725699 68.2136611,90.1428187 C68.1647768,90.1247876 68.1104611,90.1049534 68.0244611,90.0752021 C67.6659768,89.9048083 67.3002505,89.7614611 66.9490084,89.5748394 C66.9290926,89.5640207 66.9073663,89.5568083 66.8865453,89.5459896 C66.3035558,88.5182176 65.7585874,87.4661036 65.2932821,86.3770259 C64.9257453,85.5142383 64.5917032,84.6054715 64.6224821,83.6624456 C64.6514505,82.7771192 65.0877874,81.8692539 65.8518295,81.440114 L71.5414084,81.2372642 C71.8781663,83.669658 72.0420189,85.5503005 72.1198716,86.7241244" id="Fill-30" fill="#FFB288"></path><path d="M58.9834168,47.016513 L61.4900905,50.1521192 L61.7562379,50.4847927 C61.9463432,50.812057 62.1083853,51.0924404 62.2568484,51.3520881 C62.8117747,51.6703368 63.2607853,52.1869275 63.4735221,52.8802228 C68.5194589,64.4183161 70.6459221,74.7825855 71.5412274,81.237715 L65.8516484,81.4396632 C61.5597958,64.3858601 56.8651011,60.0214352 54.6155221,54.441715 C54.2335011,53.9557772 53.81708,53.4644301 53.3780274,52.9721813 C53.31828,52.9045648 53.2503853,52.8369482 53.1897326,52.7693316 L58.9834168,47.016513 Z" id="Fill-32" fill="#B0EFFF"></path><path d="M32.8885726,12.2301264 C33.7105516,12.0398984 34.56512,12.6836083 34.7959621,13.6672041 C35.0268042,14.6517016 34.5470147,15.603743 33.7241305,15.793971 C32.9012463,15.984199 32.0475832,15.3404891 31.8167411,14.3559917 C31.5858989,13.3723959 32.0656884,12.4203544 32.8885726,12.2301264" id="Fill-34" fill="#FFB288"></path><path d="M23.6547074,7.95080829 C22.7820337,9.27068394 22.4262653,11.0629741 22.8562653,12.8958342 L23.9480126,17.549658 C24.6930442,20.7285389 27.4785389,22.826456 30.1354863,22.2124974 C32.7933389,21.5976373 34.3576337,18.4935855 33.6116968,15.3147047 L32.55616,10.8141451 L23.6547074,7.95080829 Z" id="Fill-36" fill="#FFB288"></path><path d="M35.6997768,27.4539544 L31.8189137,28.3519026 C31.2857137,28.4754155 30.7416505,28.1220062 30.6121979,27.5675503 L28.1716084,17.1618093 C28.0412505,16.6064518 28.3707663,16.0519959 28.9048716,15.9284829 L32.7857347,15.0314363 C33.3189347,14.9079233 33.8620926,15.2604311 33.9924505,15.814887 L36.4339453,26.2215295 C36.5643032,26.7759855 36.2329768,27.3304415 35.6997768,27.4539544" id="Fill-38" fill="#FFB288"></path><path d="M28.1067011,29.0479927 C28.1067011,30.799713 30.61428,32.2205627 33.7066589,32.2205627 C36.7999432,32.2205627 39.3075221,30.799713 39.3075221,29.0479927 C39.3075221,27.2962725 36.7999432,25.8754228 33.7066589,25.8754228 C30.61428,25.8754228 28.1067011,27.2962725 28.1067011,29.0479927" id="Fill-40" fill="#FFB288"></path><path d="M52.3176926,72.7922238 L40.8959874,72.7922238 C38.7487032,72.7922238 37.0069768,73.8614674 37.0069768,75.1804415 L37.0069768,91.3299855 C37.0069768,92.6489596 38.7487032,93.7191047 40.8959874,93.7191047 L52.3176926,93.7191047 C54.4649768,93.7191047 56.2057979,92.6489596 56.2057979,91.3299855 L56.2057979,75.1804415 C56.2057979,73.8614674 54.4649768,72.7922238 52.3176926,72.7922238" id="Fill-42" fill="#AD7F5D"></path><path d="M40.2030989,72.7953793 C38.4052463,72.8098041 37.00752,73.6770995 37.00752,74.7454415 L37.00752,91.765887 C37.00752,92.834229 38.4052463,93.7015244 40.1388253,93.7177523 C41.9185726,93.6870995 43.2945726,92.826115 43.2945726,91.765887 L43.2945726,74.7454415 C43.2945726,73.6852135 41.9185726,72.824229 40.2030989,72.7953793" id="Fill-44" fill="#895E40"></path><path d="M40.1505032,78.7689886 C39.9305242,78.7689886 39.7114505,78.6770301 39.55484,78.5003254 C19.8010926,55.9488435 24.1029032,31.0100456 24.1490716,30.760315 C24.2269242,30.3347813 24.6306716,30.0652166 25.0661032,30.1292269 C25.4942926,30.2076622 25.7794505,30.6151648 25.7015979,31.0425016 C25.65724,31.2841181 21.5075137,55.5106881 40.7461663,77.4716518 C41.0322295,77.797113 40.9978295,78.2929679 40.6683137,78.576056 C40.5189453,78.7067813 40.3351768,78.7689886 40.1505032,78.7689886" id="Fill-46" fill="#895E40"></path><path d="M45.3641853,37.3186725 C44.6798063,37.0761544 44.0633221,36.7506933 43.5246905,36.3495016 L52.4198063,75.3318124 C52.5030905,75.6960404 52.82808,75.9421648 53.18928,75.9421648 C53.2472168,75.9421648 53.3051537,75.9367554 53.3639958,75.9223306 C53.7894695,75.8276674 54.0565221,75.4084446 53.9596589,74.9865171 L45.3641853,37.3186725 Z" id="Fill-48" fill="#AD7F5D"></path><path d="M46.9647811,31.9828228 C41.6708021,31.861113 37.3861916,39.3052477 42.7181916,43.4451855 C46.1455179,46.1083772 50.2137705,49.4801907 53.1893705,52.7699627 L58.9830547,47.0162425 L46.9647811,31.9828228 Z" id="Fill-50" fill="#B0EFFF"></path><path d="M4.62471789,26.0941399 L4.62471789,26.0941399 C5.14886526,26.0941399 5.57343368,25.6713109 5.57343368,25.1493109 L5.57343368,10.8109896 C5.57343368,10.2889896 5.14886526,9.86616062 4.62471789,9.86616062 C4.10057053,9.86616062 3.67600211,10.2889896 3.67600211,10.8109896 L3.67600211,25.1493109 C3.67600211,25.6713109 4.10057053,26.0941399 4.62471789,26.0941399" id="Fill-52" fill="#161616"></path></g></g></g></svg> 